<svg clip-rule="evenodd" fill-rule="evenodd" stroke-linejoin="round" stroke-miterlimit="2" viewBox="0 0 560 400" xmlns="http://www.w3.org/2000/svg"><g fill="#5c3824" fill-rule="nonzero"><path d="m0 0c-7.036 0-10.772-4.02-10.772-6.917v-102.662c0-2.956 3.736-7.038 10.772-7.038 7.055 0 10.806 4.082 10.806 7.038v102.662c0 2.798-3.453 6.917-10.806 6.917" transform="matrix(.728197 0 0 -.728197 456.4027601 157.13798746)"/><path d="m0 0c7.441 0 13.995-2.622 13.995-8.595 0-5.459-6.188-9.533-14.072-9.533-8.319 0-16.265 4.612-18.669 6.988 3.705 7.889 11.492 11.14 18.746 11.14m26.413-39.169c-7.787-7.305-19.139-8.456-26.691-8.022-11.628.649-21.614 8.26-21.305 18.757 6.562-4.485 15.236-6.14 21.583-6.14 19.429 0 35.561 9.589 35.561 26.473.019 12.339-11.333 26.464-35.561 26.464-30.305 0-43.877-21.892-43.877-41.29 0-20.126 13.226-41.275 43.996-41.275 16.498 0 28.386 6.82 30.078 16.092.752 4.011-1.731 7.759-3.784 8.941" transform="matrix(.728197 0 0 -.728197 504.10694557 196.109634506)"/><path d="m0 0c-9.879 0-15.868-1.891-23.692-8.101v1.094c0 2.956-3.736 7.007-10.774 7.007-7.05 0-10.803-4.051-10.803-7.007v-67.536c0-2.897 3.753-6.956 10.803-6.956 7.038 0 10.774 4.059 10.774 6.956v28.693c0 18.362 7.095 27.487 19.976 27.487 8.872 0 11.781-7.449 11.781-14.862v-41.318c0-2.778 3.404-6.956 10.72-6.956 7.384 0 10.854 4.178 10.854 6.956v40.984c0 23.505-12.135 33.559-29.639 33.559" transform="matrix(.728197 0 0 -.728197 62.96520297 182.738481192)"/><path d="m0 0h-15.015v15.503c0 2.919-3.731 6.97-10.729 6.97-7.09 0-10.857-4.051-10.857-6.97v-58.091c0-9.708 0-32.468 23.448-38.361 2.16-.354 3.957-.53 5.525-.53 4.884 0 7.668 1.593 9.879 5.715 2.307 4.13 1.533 8.169 1.119 9.68-1.006-.079-1.99-.119-2.897-.119-7.115 0-11.449 2.248-13.606 7.047-1.882 4.277-1.882 10.043-1.882 16.704v25.657h13.008c7.118 0 11.883 6.043 11.883 11.698 0 3.314-1.587 5.097-9.876 5.097" transform="matrix(.728197 0 0 -.728197 184.80712501 182.738481192)"/><path d="m0 0c-11.701 0-31.482-7.676-31.482-38.132v-36.292c0-2.956 3.736-7.055 10.803-7.055 7.019 0 10.783 4.099 10.783 7.055v32.497c0 18.981 4.119 26.966 23.874 26.966.411 1.389 1.182 5.272-1.126 9.45-2.778 5.097-7.667 5.511-12.852 5.511" transform="matrix(.728197 0 0 -.728197 367.09668002 182.738481192)"/><path d="m0 0c3.708 7.894 11.483 11.149 18.746 11.149 7.443 0 13.986-2.622 13.986-8.598 0-5.457-6.183-9.53-14.074-9.53-8.309 0-16.237 4.612-18.658 6.979m54.309 3.044c.008 12.331-11.341 26.465-35.563 26.465-30.311 0-43.878-21.889-43.878-41.287 0-20.126 13.238-41.278 44.011-41.278 16.486 0 28.352 6.82 30.072 16.095.755 4.011-1.76 7.747-3.798 8.938-7.764-7.302-19.117-8.453-26.702-8.022-11.605.652-21.603 8.26-21.274 18.756 6.548-4.484 15.202-6.139 21.569-6.139 19.417 0 35.563 9.589 35.563 26.472" transform="matrix(.728197 0 0 -.728197 110.729828791 204.226846465)"/><path d="m0 0c-8.107-.031-14.519-2.316-19.284-6.219-4.774 3.903-11.2 6.188-19.304 6.219-19.602-.051-29.512-13.294-29.512-31.037v-43.86c0-2.741 3.558-6.602 10.27-6.602 6.648 0 10.225 3.861 10.225 6.602v44.175c0 7.362 3.144 12.359 9.017 12.359 5.896 0 9.059-4.997 9.059-12.359v-44.175c0-2.741 3.558-6.602 10.211-6.602h.054c6.667 0 10.227 3.861 10.227 6.602v44.175c0 7.362 3.152 12.359 9.037 12.359s9.037-4.997 9.037-12.359v-44.175c0-2.741 3.54-6.602 10.207-6.602 6.696 0 10.29 3.861 10.29 6.602v43.86c0 17.743-9.93 30.986-29.534 31.037" transform="matrix(.728197 0 0 -.728197 246.35433545 182.738481192)"/><path d="m0 0c-.709-13.266-8.099-24.741-20.775-23.556-9.836.907-15.664 11.435-13.845 24.404 1.82 13.011 9.953 22.118 20.359 21.271 10.182-.564 14.981-9.128 14.261-22.119m21.637-8.535v10.664c0 26.396-19.035 38.35-36.695 38.35-24.355 0-41.232-19.307-41.232-42.528 0-24.758 15.876-40.037 35.71-40.037 14.491 0 22.76 5.774 28.092 10.99 1.499-2.614 2.8-4.445 4.039-6.012 2.064-2.455 4.337-3.626 6.99-3.626 1.449 0 2.997.354 4.624 1.055 3.211 1.389 5.261 3.43 5.941 5.969.68 2.614-.167 5.108-1.21 6.568-3.668 5.477-6.259 13.147-6.259 18.607" transform="matrix(.728197 0 0 -.728197 316.7345755 212.215895752)"/><path d="m0 0c-.729-13.266-8.121-24.741-20.775-23.556-9.839.907-15.673 11.435-13.85 24.404 1.794 13.011 9.935 22.118 20.353 21.271 10.193-.564 14.981-9.128 14.272-22.119m-15.058 40.479c-7.435 0-14.017-1.704-19.686-4.66v32.898c0 2.798-3.439 6.9-10.812 6.9-7.038 0-10.763-4.003-10.763-6.9v-70.766c0-24.758 15.877-40.037 35.72-40.037 28.06 0 42.233 21.586 42.233 44.215 0 24.582-14.794 38.35-36.692 38.35" transform="matrix(.728197 0 0 -.728197 424.93008576 212.215895752)"/></g></svg>