<svg xmlns="http://www.w3.org/2000/svg" height="800" width="1200" viewBox="-95.20965 -45.778 825.1503 274.668"><path d="M82.909 0L0 40.74v72.928h82.909V.002z" fill="#0054a3"/><path d="M106.495 183.112l85.767-45.028-109.357-24.418-82.65-.05L0 158.031l106.495 25.08z" fill="#b4e114"/><path d="M0 95.844v62.182l82.906-44.36z" fill="#0aa0d1"/><path d="M125.127 17.602v79.335h20.014V54.768l64.324 44.312V19.747h-20.727v42.168zm425.264 0v79.335h20.013V54.053l64.327 45.027V19.747h-20.014v42.168zm-318.055 2.145v77.19h77.906V79.069h-57.178V65.49h57.178V49.765h-57.178v-13.58h57.178V19.747zm94.346 0l35.736 38.594-35.736 38.596h26.445l22.871-26.446 22.871 26.445h26.445l-35.021-38.595 35.022-38.594h-26.446L376 46.19l-22.872-26.443zm115.07 0v77.19h85.768v-77.19zm20.014 18.582h45.027v40.74h-45.027z"/></svg>